REM DIRINDEX 1\2\5,1\2\6,1\2\7,1\2\8,1\3\9,1\3\10,1\3\11,1\4\12,1\4\13,1\4\14,1\4\15,1\4\16
REM DIRNAME folder01,folder02,folder03,folder04,folder05,folder06,folder07,folder08,folder09,folder10,folder11,folder12,folder13,folder14,folder15,folder16
TITLE ""
FILE "1200_2_sec05_1602_1615.mp3" MP3
  TRACK 01 AUDIO
    TITLE "0:"
    INDEX 01 00:00:00
  TRACK 02 AUDIO
    TITLE "10:cjc034_03323"
    INDEX 01 00:00:13
  TRACK 03 AUDIO
    TITLE "0:"
    INDEX 01 00:01:09
  TRACK 04 AUDIO
    TITLE "9:cjc034_03324"
    INDEX 01 00:01:13
  TRACK 05 AUDIO
    TITLE "0:"
    INDEX 01 00:02:45
  TRACK 06 AUDIO
    TITLE "10:cjc034_03325"
    INDEX 01 00:03:29
  TRACK 07 AUDIO
    TITLE "0:"
    INDEX 01 00:04:21
  TRACK 08 AUDIO
    TITLE "9:cjc034_03326"
    INDEX 01 00:04:23
  TRACK 09 AUDIO
    TITLE "0:"
    INDEX 01 00:05:57
  TRACK 10 AUDIO
    TITLE "10:cjc034_03327"
    INDEX 01 00:06:33
  TRACK 11 AUDIO
    TITLE "0:"
    INDEX 01 00:08:66
  TRACK 12 AUDIO
    TITLE "9:cjc034_03328"
    INDEX 01 00:08:72
  TRACK 13 AUDIO
    TITLE "0:"
    INDEX 01 00:10:08
  TRACK 14 AUDIO
    TITLE "10:cjc034_03329"
    INDEX 01 00:10:63
  TRACK 15 AUDIO
    TITLE "0:"
    INDEX 01 00:11:74
  TRACK 16 AUDIO
    TITLE "9:cjc034_03330"
    INDEX 01 00:12:01
  TRACK 17 AUDIO
    TITLE "0:"
    INDEX 01 00:13:37
  TRACK 18 AUDIO
    TITLE "10:cjc034_03331"
    INDEX 01 00:14:17
  TRACK 19 AUDIO
    TITLE "0:"
    INDEX 01 00:17:10
  TRACK 20 AUDIO
    TITLE "9:cjc034_03332"
    INDEX 01 00:17:12
  TRACK 21 AUDIO
    TITLE "0:"
    INDEX 01 00:18:66
  TRACK 22 AUDIO
    TITLE "11:cjc034_03333"
    INDEX 01 00:20:41
  TRACK 23 AUDIO
    TITLE "0:"
    INDEX 01 00:22:15
  TRACK 24 AUDIO
    TITLE "10:cjc034_03334"
    INDEX 01 00:23:14
  TRACK 25 AUDIO
    TITLE "0:"
    INDEX 01 00:26:09
  TRACK 26 AUDIO
    TITLE "9:cjc034_03335"
    INDEX 01 00:26:17
  TRACK 27 AUDIO
    TITLE "0:"
    INDEX 01 00:27:36
  TRACK 28 AUDIO
    TITLE "10:cjc034_03336"
    INDEX 01 00:28:21
  TRACK 29 AUDIO
    TITLE "0:"
    INDEX 01 00:29:15
  TRACK 30 AUDIO
    TITLE "9:cjc034_03337"
    INDEX 01 00:29:19
  TRACK 31 AUDIO
    TITLE "0:"
    INDEX 01 00:30:36
  TRACK 32 AUDIO
    TITLE "10:cjc034_03338"
    INDEX 01 00:31:18
  TRACK 33 AUDIO
    TITLE "0:"
    INDEX 01 00:32:25
  TRACK 34 AUDIO
    TITLE "9:cjc034_03339"
    INDEX 01 00:32:27
  TRACK 35 AUDIO
    TITLE "0:"
    INDEX 01 00:33:42
  TRACK 36 AUDIO
    TITLE "10:cjc034_03340"
    INDEX 01 00:34:24
  TRACK 37 AUDIO
    TITLE "0:"
    INDEX 01 00:35:47
  TRACK 38 AUDIO
    TITLE "9:cjc034_03341"
    INDEX 01 00:35:49
  TRACK 39 AUDIO
    TITLE "0:"
    INDEX 01 00:36:56
  TRACK 40 AUDIO
    TITLE "10:cjc034_03342"
    INDEX 01 00:37:38
  TRACK 41 AUDIO
    TITLE "0:"
    INDEX 01 00:38:57
  TRACK 42 AUDIO
    TITLE "9:cjc034_03343"
    INDEX 01 00:38:69
  TRACK 43 AUDIO
    TITLE "0:"
    INDEX 01 00:39:72
  TRACK 44 AUDIO
    TITLE "10:cjc034_03344"
    INDEX 01 00:40:52
  TRACK 45 AUDIO
    TITLE "0:"
    INDEX 01 00:41:69
  TRACK 46 AUDIO
    TITLE "9:cjc034_03345"
    INDEX 01 00:42:00
  TRACK 47 AUDIO
    TITLE "0:"
    INDEX 01 00:43:15
  TRACK 48 AUDIO
    TITLE "10:cjc034_03346"
    INDEX 01 00:43:74
  TRACK 49 AUDIO
    TITLE "0:"
    INDEX 01 00:46:09
  TRACK 50 AUDIO
    TITLE "9:cjc034_03347"
    INDEX 01 00:46:15
  TRACK 51 AUDIO
    TITLE "0:"
    INDEX 01 00:47:23
  TRACK 52 AUDIO
    TITLE "10:cjc034_03348"
    INDEX 01 00:48:02
  TRACK 53 AUDIO
    TITLE "0:"
    INDEX 01 00:49:08
  TRACK 54 AUDIO
    TITLE "9:cjc034_03349"
    INDEX 01 00:49:10
  TRACK 55 AUDIO
    TITLE "0:"
    INDEX 01 00:50:15
  TRACK 56 AUDIO
    TITLE "10:cjc034_03350"
    INDEX 01 00:50:74
  TRACK 57 AUDIO
    TITLE "0:"
    INDEX 01 00:52:08
  TRACK 58 AUDIO
    TITLE "9:cjc034_03351"
    INDEX 01 00:52:10
  TRACK 59 AUDIO
    TITLE "0:"
    INDEX 01 00:53:11
